# xmcd
#
# Track frame offsets:
#	150
#	5685
#	24757
#	42497
#	61285
#	80712
#	101557
#	114477
#	131480
#	151545
#	171995
#	191647
#	202307
#
# Disc length: 2970 seconds
#
# Revision: 3
# Processed by: cddbd v1.5.1PL2 Copyright (c) Steve Scherf et al.
# Submitted via: MusicWizard 7.2.0
#
DISCID=ab0b980d
DTITLE=Schooly D - Welcome To America
DYEAR=1994
DGENRE=Rap - HipHop
TTITLE0=Intro
TTITLE1=I Wanna Get Dusted
TTITLE2=I Know You Want To Kill Me
TTITLE3=Welcome To America
TTITLE4=Niggas Like Me
TTITLE5=Gansta Trippin
TTITLE6=Gimmie Your Shit Nigga
TTITLE7=No Good Nigga
TTITLE8=I Shot Da Bitch
TTITLE9=Motherfuckin D
TTITLE10=Stop Frontin
TTITLE11=Peace Of What
TTITLE12=Another Sign
EXTD=Wertung =27,2 %\nA - M/M - ???\nOM: kein Eintrag in 2002\nVerkaufspreis:
EXTT0=
EXTT1=
EXTT2=
EXTT3=
EXTT4=
EXTT5=
EXTT6=
EXTT7=
EXTT8=
EXTT9=
EXTT10=
EXTT11=
EXTT12=
PLAYORDER=
